<svg xmlns="http://www.w3.org/2000/svg" xmlns:xlink="http://www.w3.org/1999/xlink" contentStyleType="text/css" data-diagram-type="STATE" height="202px" preserveAspectRatio="none" style="width:642px;height:202px;background:#FFFFFF;" version="1.1" viewBox="0 0 642 202" width="642px" zoomAndPan="magnify"><defs/><g><g id="NEW"><rect fill="#F1F1F1" height="55.412" rx="12.5" ry="12.5" style="stroke:#181818;stroke-width:0.5;" width="108.1766" x="7" y="7"/><line style="stroke:#181818;stroke-width:0.5;" x1="7" x2="115.1766" y1="36.0679" y2="36.0679"/><text fill="#000000" font-family="sans-serif" font-size="14" lengthAdjust="spacing" textLength="31.4439" x="45.3664" y="26.9659">NEW</text><text fill="#000000" font-family="sans-serif" font-size="12" lengthAdjust="spacing" textLength="88.1766" x="12" y="53.896">Satellite started</text></g><g id="INIT"><rect fill="#F1F1F1" height="55.412" rx="12.5" ry="12.5" style="stroke:#181818;stroke-width:0.5;" width="121.6767" x="201.25" y="7"/><line style="stroke:#181818;stroke-width:0.5;" x1="201.25" x2="322.9267" y1="36.0679" y2="36.0679"/><text fill="#000000" font-family="sans-serif" font-size="14" lengthAdjust="spacing" textLength="27.9159" x="248.1304" y="26.9659">INIT</text><text fill="#000000" font-family="sans-serif" font-size="12" lengthAdjust="spacing" textLength="101.6767" x="206.25" y="53.896">Satellite initialized</text></g><g id="ORBIT"><rect fill="#F1F1F1" height="55.412" rx="12.5" ry="12.5" style="stroke:#181818;stroke-width:0.5;" width="117.8727" x="399.15" y="7"/><line style="stroke:#181818;stroke-width:0.5;" x1="399.15" x2="517.0227" y1="36.0679" y2="36.0679"/><text fill="#000000" font-family="sans-serif" font-size="14" lengthAdjust="spacing" textLength="41.2718" x="437.4504" y="26.9659">ORBIT</text><text fill="#000000" font-family="sans-serif" font-size="12" lengthAdjust="spacing" textLength="97.8727" x="404.15" y="53.896">Satellite powered</text></g><g id="RUN"><rect fill="#F1F1F1" height="55.412" rx="12.5" ry="12.5" style="stroke:#181818;stroke-width:0.5;" width="131.5888" x="392.29" y="141.41"/><line style="stroke:#181818;stroke-width:0.5;" x1="392.29" x2="523.8788" y1="170.4779" y2="170.4779"/><text fill="#000000" font-family="sans-serif" font-size="14" lengthAdjust="spacing" textLength="29.5819" x="443.2934" y="161.3759">RUN</text><text fill="#000000" font-family="sans-serif" font-size="12" lengthAdjust="spacing" textLength="111.5888" x="397.29" y="188.306">Satellite taking data</text></g><!--link NEW to INIT--><g class="link" data-entity-1="NEW" data-entity-2="INIT" data-source-line="8" data-uid="lnk2" id="link_NEW_INIT"><path d="M115.48,34.7 C141.87,34.7 167.68,34.7 194.91,34.7" fill="none" id="NEW-to-INIT" style="stroke:#0000FF;stroke-width:2;"/><polygon fill="#0000FF" points="200.91,34.7,191.91,30.7,195.91,34.7,191.91,38.7,200.91,34.7" style="stroke:#0000FF;stroke-width:2;"/><text fill="#000000" font-family="sans-serif" font-size="13" lengthAdjust="spacing" textLength="50.232" x="133.21" y="27.597">initialize</text></g><!--link INIT to ORBIT--><g class="link" data-entity-1="INIT" data-entity-2="ORBIT" data-source-line="9" data-uid="lnk3" id="link_INIT_ORBIT"><path d="M323.3,34.7 C347.33,34.7 368.83,34.7 392.68,34.7" fill="none" id="INIT-to-ORBIT" style="stroke:#0000FF;stroke-width:2;"/><polygon fill="#0000FF" points="398.68,34.7,389.68,30.7,393.68,34.7,389.68,38.7,398.68,34.7" style="stroke:#0000FF;stroke-width:2;"/><text fill="#000000" font-family="sans-serif" font-size="13" lengthAdjust="spacing" textLength="40.989" x="341.04" y="27.597">launch</text></g><!--reverse link INIT to ORBIT--><g class="link" data-entity-1="INIT" data-entity-2="ORBIT" data-source-line="10" data-uid="lnk5" id="link_INIT_ORBIT"><path d="M329.2999,55.1141 C345.9799,58.3541 358.2,58.89 375.04,56.7 C382.88,55.68 391.03,54.14 399.03,52.34" fill="none" id="INIT-backto-ORBIT" style="stroke:#0000FF;stroke-width:2;"/><polygon fill="#0000FF" points="323.41,53.97,331.4821,59.6127,328.3183,54.9234,333.0076,51.7595,323.41,53.97" style="stroke:#0000FF;stroke-width:2;"/><text fill="#000000" font-family="sans-serif" font-size="13" lengthAdjust="spacing" textLength="26.676" x="348.04" y="52.597">land</text></g><!--link ORBIT to RUN--><g class="link" data-entity-1="ORBIT" data-entity-2="RUN" data-source-line="11" data-uid="lnk6" id="link_ORBIT_RUN"><path d="M458.09,62.82 C458.09,85.67 458.09,112.2 458.09,135.04" fill="none" id="ORBIT-to-RUN" style="stroke:#0000FF;stroke-width:2;"/><polygon fill="#0000FF" points="458.09,141.04,462.09,132.04,458.09,136.04,454.09,132.04,458.09,141.04" style="stroke:#0000FF;stroke-width:2;"/><text fill="#000000" font-family="sans-serif" font-size="13" lengthAdjust="spacing" textLength="28.275" x="459.09" y="107.307">start</text></g><!--reverse link ORBIT to RUN--><g class="link" data-entity-1="ORBIT" data-entity-2="RUN" data-source-line="13" data-uid="lnk9" id="link_ORBIT_RUN"><path d="M432.6185,67.6199 C426.5785,76.5499 424.2,81.93 421.09,92.41 C416.08,109.23 423.9,126.92 433.62,140.96" fill="none" id="ORBIT-backto-RUN" style="stroke:#0000FF;stroke-width:2;"/><polygon fill="#0000FF" points="435.98,62.65,427.6244,67.8639,433.1787,66.7916,434.251,72.3459,435.98,62.65" style="stroke:#0000FF;stroke-width:2;"/><text fill="#000000" font-family="sans-serif" font-size="13" lengthAdjust="spacing" textLength="26.78" x="422.09" y="107.307">stop</text></g><!--link ORBIT to ORBIT--><g class="link" data-entity-1="ORBIT" data-entity-2="ORBIT" data-source-line="12" data-uid="lnk7" id="link_ORBIT_ORBIT"><path d="M517.26,22.1 C536.61,22.17 552.02,26.37 552.02,34.7 C552.02,43.04 542.61,47.2214 523.26,47.2814" fill="none" id="ORBIT-to-ORBIT" style="stroke:#0000FF;stroke-width:2;"/><polygon fill="#0000FF" points="517.26,47.3,526.2724,51.2721,522.26,47.2845,526.2476,43.2721,517.26,47.3" style="stroke:#0000FF;stroke-width:2;"/><text fill="#000000" font-family="sans-serif" font-size="13" lengthAdjust="spacing" textLength="71.3961" x="558.02" y="40.097">reconfigure</text></g><!--SRC=[TP2_3e8m48VtFaKJLta11mSJ1nPCGEDW70ezuEBPadB4wDFB7uk1mDRhxxlxBbUY1WdFYjzIGvqvh1Yj4I9XnI2ZurNkPD8-YR2jQrQEGV_IC0hFanWDCYh2puYSuiECgUmBt9Z7bsYIidgWAQHMh8Jex873ekJR9gK6jgabVG_sNlpNYVvdaVKRa6fCLegX30ZobQ6aZFRKZ1YMxM-mGdYPWyoQ78l6WUYwbdoUhTbMNm00]--></g></svg>